HIERARCHY
ROOT Hips
{
    OFFSET 0.000000 0.000000 0.000000
    CHANNELS 6 Xposition Yposition Zposition Zrotation Xrotation Yrotation
    JOINT Spine
    {
        OFFSET -0.000000 14.517291 0.000000
        CHANNELS 3 Zrotation Xrotation Yrotation
        JOINT Spine1
        {
            OFFSET -0.000000 37.558300 0.000000
            CHANNELS 3 Zrotation Xrotation Yrotation
            JOINT Neck
            {
                OFFSET -0.000000 37.404057 3.400369
                CHANNELS 3 Zrotation Xrotation Yrotation
                JOINT Head
                {
                    OFFSET -0.000000 24.785618 -3.540803
                    CHANNELS 3 Zrotation Xrotation Yrotation
                    End Site
                    {
                        OFFSET -0.000000 35.408028 0.000000
                    }
                }
            }
            JOINT LeftShoulder
            {
                OFFSET 6.992933 33.973492 -0.192664
                CHANNELS 3 Zrotation Xrotation Yrotation
                JOINT LeftArm
                {
                    OFFSET 21.527611 0.000000 0.000000
                    CHANNELS 3 Zrotation Xrotation Yrotation
                    JOINT LeftForeArm
                    {
                        OFFSET 56.353916 0.000000 0.000000
                        CHANNELS 3 Zrotation Xrotation Yrotation
                        JOINT LeftHand
                        {
                            OFFSET 47.774071 0.000000 0.000000
                            CHANNELS 3 Zrotation Xrotation Yrotation
                            End Site
                            {
                                OFFSET 26.556021 0.000000 0.000000
                            }
                        }
                    }
                }
            }
            JOINT RightShoulder
            {
                OFFSET -7.065357 33.973492 -0.192664
                CHANNELS 3 Zrotation Xrotation Yrotation
                JOINT RightArm
                {
                    OFFSET -21.527611 0.000000 0.000000
                    CHANNELS 3 Zrotation Xrotation Yrotation
                    JOINT RightForeArm
                    {
                        OFFSET -56.353916 0.000000 0.000000
                        CHANNELS 3 Zrotation Xrotation Yrotation
                        JOINT RightHand
                        {
                            OFFSET -47.774071 0.000000 0.000000
                            CHANNELS 3 Zrotation Xrotation Yrotation
                            End Site
                            {
                                OFFSET -26.556021 0.000000 0.000000
                            }
                        }
                    }
                }
            }
        }
    }
    JOINT LeftUpLeg
    {
        OFFSET 17.704014 0.000000 0.000000
        CHANNELS 3 Zrotation Xrotation Yrotation
        JOINT LeftLeg
        {
            OFFSET -0.000000 -81.181816 0.000000
            CHANNELS 3 Zrotation Xrotation Yrotation
            JOINT LeftFoot
            {
                OFFSET -0.000000 -62.821102 0.000000
                CHANNELS 3 Zrotation Xrotation Yrotation
                JOINT LeftToeBase
                {
                    OFFSET -0.000000 -11.507608 26.556021
                    CHANNELS 3 Zrotation Xrotation Yrotation
                    End Site
                    {
                        OFFSET -0.000000 0.000000 7.081605
                    }
                }
            }
        }
    }
    JOINT RightUpLeg
    {
        OFFSET -17.704014 0.000000 0.000000
        CHANNELS 3 Zrotation Xrotation Yrotation
        JOINT RightLeg
        {
            OFFSET -0.000000 -81.181816 0.000000
            CHANNELS 3 Zrotation Xrotation Yrotation
            JOINT RightFoot
            {
                OFFSET -0.000000 -62.821102 0.000000
                CHANNELS 3 Zrotation Xrotation Yrotation
                JOINT RightToeBase
                {
                    OFFSET -0.000000 -11.507608 26.556021
                    CHANNELS 3 Zrotation Xrotation Yrotation
                    End Site
                    {
                        OFFSET -0.000000 0.000000 7.081605
                    }
                }
            }
        }
    }
}
MOTION
Frames:    5
Frame Time:    0.008333
21.400644    148.828674    53.866577    4.381178    9.710171    -74.545151    -2.663125    3.228323    -0.318130    -2.281961    -2.780656    -0.188989    19.012823    -0.164641    12.957430    -12.238974    3.538870    9.252421    11.464055    1.955609    -15.311458    -10.310937    -4.604774    -20.404062    15.718008    0.275524    -43.188816    -4.493149    8.320019    -43.804726    -11.886063    -3.798211    -6.477474    28.726303    -25.386629    39.451035    5.639001    -25.376629    104.450081    17.588844    -27.466349    31.220535    45.618748    -23.569014    22.176783    -32.767395    41.918865    1.408266    -4.684023    -17.040804    48.223446    0.000000    0.000000    0.000000    -22.244547    -19.473568    -19.947762    7.004187    33.754837    -9.069344    15.076076    -1.953781    3.706748    0.000000    0.000000    0.000000    
21.298065    148.893616    53.837944    4.385428    9.430667    -74.461601    -2.507836    3.264929    -0.427524    -2.275777    -2.885062    -0.225628    18.940517    -0.052887    12.964038    -12.208249    3.442681    9.282814    11.523809    2.013590    -15.167706    -10.356282    -4.583309    -20.545383    15.666900    0.238295    -43.148800    -4.684504    8.340816    -43.979412    -11.848097    -3.841746    -6.429348    28.673992    -25.417398    39.394501    5.705696    -25.247868    104.484146    17.486362    -27.455837    31.160660    45.209568    -23.473610    22.009687    -32.516254    41.681877    1.249448    -4.834316    -16.880852    48.199989    0.000000    0.000000    0.000000    -22.492296    -19.358553    -19.893599    7.019362    33.799393    -9.114638    15.096002    -2.090600    3.704131    0.000000    0.000000    0.000000    
21.182415    148.951904    53.809185    4.363847    9.167168    -74.382217    -2.369770    3.229847    -0.446012    -2.184962    -2.863472    -0.227696    18.953060    -0.127098    12.959497    -12.258789    3.520871    9.266124    11.511581    2.017082    -15.211686    -10.365241    -4.439892    -20.589981    15.754563    0.148698    -43.029556    -4.680218    8.273185    -44.118690    -11.896341    -3.855982    -6.461511    28.672344    -25.538031    39.316387    5.834357    -25.028130    104.523369    17.468382    -27.391506    31.206842    44.831348    -23.349354    21.829065    -32.343166    41.480385    1.125883    -4.937398    -16.795666    48.201508    0.000000    0.000000    0.000000    -22.708279    -19.222757    -19.836069    7.018184    33.844292    -9.097165    15.124605    -2.255109    3.665432    0.000000    0.000000    0.000000    
21.068998    149.004807    53.784180    4.339527    8.891380    -74.289230    -2.229568    3.198601    -0.497831    -2.137235    -2.825263    -0.241362    18.853336    -0.056758    12.936689    -12.214846    3.433244    9.265231    11.540448    2.028589    -15.211657    -10.386336    -4.468992    -20.657019    15.733855    0.179600    -43.017860    -4.533544    8.218578    -43.763008    -11.902610    -3.880504    -6.427667    28.610157    -25.624506    39.194954    5.849251    -24.901531    104.513992    17.367767    -27.312069    31.186163    44.434467    -23.231726    21.652525    -32.153553    41.291359    0.961825    -5.016906    -16.699434    48.221401    0.000000    0.000000    0.000000    -22.941534    -19.076252    -19.776125    7.036238    33.895096    -9.120290    15.134107    -2.433388    3.627469    0.000000    0.000000    0.000000    
20.961798    149.063171    53.766396    4.328747    8.602323    -74.204102    -2.099631    3.187096    -0.514362    -2.085109    -2.836701    -0.244686    18.837191    -0.055244    12.911049    -12.263578    3.442555    9.236677    11.535295    2.060614    -15.244810    -10.363781    -4.259953    -20.714848    15.838739    -0.049766    -43.019230    -4.761361    8.115866    -43.585381    -11.907863    -3.882746    -6.471239    28.561594    -25.741852    39.123264    5.969083    -24.681187    104.538239    17.305773    -27.257132    31.164520    44.014664    -23.115540    21.482857    -31.954046    41.090858    0.823171    -5.121875    -16.613400    48.234203    0.000000    0.000000    0.000000    -23.195650    -18.943752    -19.731337    7.045680    33.946255    -9.132425    15.170607    -2.594472    3.599224    0.000000    0.000000    0.000000    
